inDegrees=no
num_controls=7
num_derivatives=13
num_iterations=40
num_multipliers=7
num_parameters=0
num_slacks=7
num_states=26
objective=0.425945
objective_accelerations=0.060565
objective_balance=0.001184
objective_effort=0.015816
objective_height=0.342499
objective_ligament=0.005881
solver_duration=596.088490
status=Solve_Succeeded
success=true
DataType=double
version=3
OpenSimVersion=4.5
endheader
time	/jointset/ground_pelvis/pelvis_tilt/value	/jointset/ground_pelvis/pelvis_tx/value	/jointset/ground_pelvis/pelvis_ty/value	/jointset/hip_l/hip_flexion_l/value	/jointset/hip_l/hip_adduction_l/value	/jointset/hip_l/hip_rotation_l/value	/jointset/back/lumbar_extension/value	/jointset/patellofemoral_l/patellar_flexion_l/value	/jointset/knee_l/knee_flexion_l/value	/jointset/knee_l/knee_adduction_l/value	/jointset/knee_l/knee_rotation_l/value	/jointset/ankle_l/ankle_angle_l/value	/jointset/subtalar_l/subtalar_angle_l/value	/jointset/ground_pelvis/pelvis_tilt/speed	/jointset/ground_pelvis/pelvis_tx/speed	/jointset/ground_pelvis/pelvis_ty/speed	/jointset/hip_l/hip_flexion_l/speed	/jointset/hip_l/hip_adduction_l/speed	/jointset/hip_l/hip_rotation_l/speed	/jointset/back/lumbar_extension/speed	/jointset/patellofemoral_l/patellar_flexion_l/speed	/jointset/knee_l/knee_flexion_l/speed	/jointset/knee_l/knee_adduction_l/speed	/jointset/knee_l/knee_rotation_l/speed	/jointset/ankle_l/ankle_angle_l/speed	/jointset/subtalar_l/subtalar_angle_l/speed	/forceset/tau_hip_flexion_l	/forceset/tau_hip_adduction_l	/forceset/tau_hip_rotation_l	/forceset/tau_knee_flexion_l	/forceset/tau_ankle_angle_l	/forceset/tau_subtalar_angle_l	/forceset/tau_lumbar_extension	lambda_cid13_p0	lambda_cid13_p1	lambda_cid13_p2	lambda_cid13_p3	lambda_cid13_p4	lambda_cid13_p5	lambda_cid14_p0	/jointset/ground_pelvis/pelvis_tilt/accel	/jointset/ground_pelvis/pelvis_tx/accel	/jointset/ground_pelvis/pelvis_ty/accel	/jointset/hip_l/hip_flexion_l/accel	/jointset/hip_l/hip_adduction_l/accel	/jointset/hip_l/hip_rotation_l/accel	/jointset/back/lumbar_extension/accel	/jointset/patellofemoral_l/patellar_flexion_l/accel	/jointset/knee_l/knee_flexion_l/accel	/jointset/knee_l/knee_adduction_l/accel	/jointset/knee_l/knee_rotation_l/accel	/jointset/ankle_l/ankle_angle_l/accel	/jointset/subtalar_l/subtalar_angle_l/accel	gamma_cid13_p0	gamma_cid13_p1	gamma_cid13_p2	gamma_cid13_p3	gamma_cid13_p4	gamma_cid13_p5	gamma_cid14_p0
1	-0.4627084477059947	-0.005539194850441935	0.5818244925010004	1.744902468640918	-0.3440374314349151	0.1349723629615883	-0.4362333405767796	1.539484544389634	1.539484544389653	0.07610056788877287	-0.1744336937452955	0.4350629006153349	0.2535353109982272	-0.1392952475412459	0.002430563980715107	0.03701917366419502	0.01147811318870262	-0.001355014854950788	-0.05311258882277109	-0.001438084197823745	-0.1590190144814872	-0.159019014481486	-0.0114208167693089	0.0002365451166583459	-0.04512055440993784	-0.02973432310404309	-0.2432312876567463	0.08277624312075695	-0.01648805882030954	-0.2970106245717118	-0.01247942269652284	-0.01548467370766836	0.211017364608807	-40.44674786612448	25.00224950556431	-17.05480442807902	3.629942973342588	-545.7033214563	-28.85847500632033	-0.02359110806486574	1.44366131495166	0.2472964354953743	2.090604612822531	-6.840275752858679	-0.2454101229829374	-1.568759490056531	-0.04517668137391491	-5.704793423329382	-5.704793423329382	-0.9189608350836305	-0.02720388875188033	-0.8021432088191355	-0.877488229226604	-1.887989355569061e-09	-1.431823731210281e-07	-9.416792814971474e-08	-1.167964043398727e-08	-8.396434946655457e-09	-2.111995156379807e-07	1.110051157465416e-08
1.01	-0.4640299643481227	-0.005502492860509369	0.5822990184414956	1.744676277042328	-0.3440626554020096	0.1343652545739561	-0.4362488628173262	1.537609437640428	1.537609437640428	0.07593881772067304	-0.174431153556752	0.4345715442191926	0.253195048477267	-0.1250005446925963	0.004919483124301948	0.0578787377116186	-0.0567109405972245	-0.00368389512389208	-0.06830477906435301	-0.001647632619738873	-0.2160044110019841	-0.2160044110019825	-0.02092337580134385	0.0002732291185067271	-0.05316368145440069	-0.03831102345066698	-0.2437043215126963	0.08274941504726108	-0.01648521135342231	-0.2960774416292112	-0.01285099835539166	-0.01542646429995578	0.2112987971760718	-40.5217162913405	24.93437663932533	-16.98033936584643	3.510698102105154	-545.5939757339272	-28.80110198715803	-0.02360754356513956	1.423505732820364	0.2511327380949038	2.082538205311165	-6.807395895989004	-0.2257239007889182	-1.493805348364649	-0.006034227357437142	-5.695726939812535	-5.695726939812482	-0.9650368971669473	0.01932680755992174	-0.8073494740682413	-0.846642088750306	-1.358446486054067e-09	-1.873581915972008e-07	-1.286573559542758e-07	-2.132030049037363e-08	-1.288938868591122e-08	-2.711038083129908e-07	1.41044415097426e-08
1.02	-0.4652083077691704	-0.005440613062280079	0.5829819212033867	1.743768359764955	-0.3441109875561826	0.1336063529724683	-0.4362659186030073	1.535164414091336	1.535164414091331	0.07568221527030275	-0.1744282020756038	0.4339993661482465	0.252769242722567	-0.1106606033239893	0.007466125640059908	0.0786945379434227	-0.1248670225643173	-0.005976652270393771	-0.08347123159216183	-0.001744793231915466	-0.27300237445859	-0.2730023744585882	-0.03039127322951948	0.0003188036366279727	-0.06128488937119909	-0.04684296985208891	-0.244177355368744	0.08272258697372929	-0.01648236388645855	-0.2951442586867078	-0.01322257401425205	-0.01536825489229848	0.2115802297432293	-40.59862976080459	24.86370032024825	-16.90183579478512	3.381627360680235	-545.5904219253815	-28.74857237888477	-0.02362628647232164	1.452709018943098	0.2588411099296211	2.081851849698655	-6.833681389091839	-0.2381854984950388	-1.563611947301941	-0.02269911942549467	-5.70730681055125	-5.70730681055125	-0.9120285143117783	-0.02542578549733776	-0.8177593832862113	-0.8685374401862268	-7.667428562929293e-10	-2.304605635569848e-07	-1.609895882566469e-07	-3.12294001202466e-08	-1.714925195133576e-08	-3.256728999234131e-07	1.645082883309266e-08
1.03	-0.4662429066116074	-0.00535294256234407	0.5838726767983718	1.742179143359496	-0.3441820391945334	0.1326958959901904	-0.4362834083517401	1.532149470932463	1.532149470932469	0.07533121945180167	-0.1744247670798677	0.4333455154379617	0.2522583624933832	-0.09623963743689502	0.01008122892330465	0.09944077850833904	-0.1929617904662019	-0.00822548074946081	-0.09861207571994926	-0.001737051790305768	-0.3299761698774159	-0.329976169877413	-0.0397975712956012	0.0003678017707925556	-0.06950506024465886	-0.05532437066943072	-0.2444669022441238	0.08272967211500085	-0.01644466831237917	-0.2939503916689162	-0.01360863947286978	-0.01528863568010657	0.2117490265146807	-40.65409162399276	24.76716994043003	-16.80459030702503	3.240684615394232	-545.2803072079865	-28.6761002634501	-0.02365130158175963	1.439719488385871	0.2648248356979642	2.06863547099424	-6.795204424381685	-0.2169706678789177	-1.488112446850665	0.01492648650547247	-5.690906564163479	-5.69090656416331	-0.9533978210823614	0.019947006815278	-0.8271292917827249	-0.8365688310257802	-1.744049330598918e-10	-2.735519819808872e-07	-1.932998083600159e-07	-4.114123892944088e-08	-2.140673674253753e-08	-3.801875507066458e-07	1.879050653795558e-08
